# xmcd
#
# Track frame offsets:
# 150
# 11024
# 22458
# 34232
# 46372
# 56830
# 65658
# 78485
# 89865
# 98241
# 107358
# 118701
#
# Disc length: 1718 seconds
#
#
# Revision: 0
# Processed by: cddbd v1.4PL0 Copyright (c) Steve Scherf et al.
# Submitted via: FreeRIP 2.00 
#
DISCID=aa06b40c
DTITLE=George Jones - Greatest Hits II
DYEAR=1965
DGENRE=Country
TTITLE0=Eskimo Pie
TTITLE1=Money To Burn
TTITLE2=Just One More
TTITLE3=Aching, Breaking Heart
TTITLE4=Wandering Soul
TTITLE5=Big Harlan Taylor
TTITLE6=Seasons Of My Heart
TTITLE7=You're Still On My Mind
TTITLE8=If I Don't Love You, Baby (Grits Ain't Groceries)
TTITLE9=When My Heart Hurts No More
TTITLE10=Cup Of Loneliness
TTITLE11=Tarnished Angel
EXTD=Mercury SR 61048
EXTT0=
EXTT1=
EXTT2=
EXTT3=
EXTT4=
EXTT5=
EXTT6=
EXTT7=
EXTT8=
EXTT9=
EXTT10=
EXTT11=
PLAYORDER=
